<svg version="1.2" baseProfile="tiny-ps" xmlns="http://www.w3.org/2000/svg" viewBox="0 0 16 16" width="16" height="16">
	<title>Section</title>
	<style>
		tspan { white-space:pre }
		.shp0 { fill: #c2cfd7 } 
	</style>
	<g id="Section">
		<g id="Footer">
			<g id="Social Icons">
				<path id="Dribble" class="shp0" d="M15.1 6.23C15 5.76 14.85 5.28 14.66 4.83C14.47 4.39 14.24 3.96 13.97 3.56C13.71 3.17 13.4 2.8 13.06 2.46C12.72 2.12 12.35 1.81 11.96 1.55C11.56 1.28 11.13 1.04 10.69 0.86C10.24 0.67 9.76 0.52 9.28 0.42C8.79 0.32 8.29 0.27 7.78 0.27C7.27 0.27 6.77 0.32 6.28 0.42C5.8 0.52 5.32 0.67 4.87 0.86C4.43 1.04 4 1.28 3.6 1.55C3.21 1.81 2.84 2.12 2.5 2.46C2.16 2.8 1.85 3.17 1.59 3.56C1.32 3.96 1.09 4.39 0.9 4.83C0.71 5.28 0.56 5.76 0.46 6.23C0.36 6.73 0.31 7.23 0.31 7.74C0.31 8.25 0.36 8.75 0.46 9.24C0.56 9.72 0.71 10.2 0.9 10.65C1.09 11.09 1.32 11.52 1.59 11.92C1.85 12.31 2.16 12.68 2.5 13.02C2.84 13.36 3.21 13.66 3.6 13.93C4 14.2 4.43 14.43 4.87 14.62C5.32 14.81 5.8 14.96 6.28 15.05C6.77 15.16 7.27 15.21 7.78 15.21C8.29 15.21 8.79 15.16 9.28 15.05C9.76 14.96 10.24 14.81 10.69 14.62C11.13 14.43 11.56 14.2 11.96 13.93C12.35 13.66 12.72 13.36 13.06 13.02C13.4 12.68 13.71 12.31 13.97 11.92C14.24 11.52 14.47 11.09 14.66 10.65C14.85 10.2 15 9.72 15.1 9.24C15.2 8.75 15.25 8.25 15.25 7.74C15.25 7.23 15.2 6.73 15.1 6.23ZM14.16 7.67C14.06 7.66 11.91 7.19 9.71 7.47C9.67 7.36 9.62 7.25 9.58 7.14C9.44 6.82 9.3 6.52 9.15 6.21C11.67 5.18 12.69 3.7 12.71 3.69C13.6 4.77 14.14 6.16 14.16 7.67ZM11.99 2.95C11.98 2.98 11.07 4.36 8.66 5.26C7.57 3.26 6.37 1.67 6.28 1.54C6.76 1.42 7.26 1.36 7.78 1.36C9.39 1.36 10.87 1.96 11.99 2.95ZM6.25 1.54L6.25 1.55C6.25 1.55 6.24 1.55 6.23 1.55C6.23 1.55 6.25 1.55 6.25 1.54ZM5.06 1.97C5.14 2.08 6.32 3.68 7.43 5.65C4.36 6.46 1.71 6.43 1.54 6.42C1.95 4.45 3.28 2.81 5.06 1.97ZM1.4 7.74C1.4 7.67 1.4 7.6 1.41 7.54C1.52 7.54 4.67 7.61 7.95 6.63C8.14 6.99 8.31 7.35 8.47 7.71C8.39 7.74 8.31 7.76 8.22 7.79C4.78 8.9 3.03 12 3.03 12L3.04 12C2.02 10.87 1.4 9.38 1.4 7.74ZM7.78 14.12C6.24 14.12 4.82 13.57 3.72 12.66C3.8 12.72 3.86 12.77 3.86 12.77C3.86 12.77 5.08 10.1 8.87 8.78C8.88 8.78 8.89 8.77 8.91 8.77C9.8 11.1 10.18 13.05 10.27 13.61C9.5 13.94 8.66 14.12 7.78 14.12ZM11.34 13.03C11.28 12.64 10.94 10.77 10.1 8.47C12.16 8.14 13.95 8.71 14.08 8.75C13.79 10.53 12.78 12.06 11.34 13.03Z" />
			</g>
		</g>
	</g>
</svg>