<svg version="1.2" baseProfile="tiny-ps" xmlns="http://www.w3.org/2000/svg" viewBox="0 0 16 15" width="16" height="15">
	<title>Section</title>
	<style>
		tspan { white-space:pre }
		.shp0 { fill: #c2cfd7 } 
	</style>
	<g id="Section">
		<g id="Footer">
			<g id="Social Icons">
				<path id="Google " class="shp0" d="M15.21 6.23L12.94 6.23L12.94 3.96C12.94 3.79 12.8 3.65 12.63 3.65L11.98 3.65C11.81 3.65 11.67 3.79 11.67 3.96L11.67 6.23L9.4 6.23C9.23 6.23 9.08 6.37 9.08 6.54L9.08 7.19C9.08 7.36 9.23 7.5 9.4 7.5L11.67 7.5L11.67 9.78C11.67 9.95 11.81 10.09 11.98 10.09L12.63 10.09C12.8 10.09 12.94 9.95 12.94 9.78L12.94 7.5L15.21 7.5C15.38 7.5 15.53 7.36 15.53 7.19L15.53 6.54C15.53 6.37 15.38 6.23 15.21 6.23ZM7.58 8.22C7.11 7.88 6.67 7.39 6.67 7.23C6.67 6.96 6.69 6.82 7.31 6.34C8.12 5.71 8.56 4.88 8.56 4.01C8.56 3.21 8.32 2.51 7.9 2.01L8.22 2.01C8.29 2.01 8.36 1.99 8.41 1.96L9.3 1.31C9.41 1.23 9.46 1.09 9.42 0.96C9.37 0.83 9.25 0.74 9.12 0.74L5.13 0.74C4.69 0.74 4.25 0.82 3.81 0.97C2.35 1.47 1.34 2.71 1.34 3.98C1.34 5.78 2.73 7.15 4.6 7.2C4.56 7.34 4.55 7.48 4.55 7.62C4.55 7.9 4.62 8.16 4.76 8.41C4.74 8.41 4.73 8.41 4.71 8.41C2.93 8.41 1.32 9.29 0.71 10.59C0.55 10.92 0.47 11.27 0.47 11.6C0.47 11.93 0.56 12.25 0.72 12.54C1.11 13.23 1.93 13.76 3.04 14.04C3.62 14.19 4.23 14.26 4.88 14.26C5.45 14.26 6 14.19 6.51 14.04C8.09 13.58 9.11 12.41 9.11 11.07C9.11 9.78 8.7 9.01 7.58 8.22ZM2.54 11.17C2.54 10.24 3.73 9.41 5.09 9.41L5.13 9.41C5.43 9.42 5.71 9.46 5.99 9.54C6.08 9.61 6.17 9.67 6.26 9.73C6.89 10.16 7.3 10.44 7.42 10.89C7.45 11.01 7.46 11.12 7.46 11.23C7.46 12.4 6.59 12.99 4.87 12.99C3.56 12.99 2.54 12.2 2.54 11.17ZM3.78 2.3C3.99 2.06 4.27 1.93 4.58 1.93L4.62 1.93C5.5 1.96 6.34 2.94 6.5 4.13C6.59 4.79 6.44 5.41 6.11 5.79C5.89 6.03 5.62 6.16 5.29 6.16L5.29 6.16L5.28 6.16C4.42 6.14 3.55 5.11 3.4 3.93C3.31 3.27 3.45 2.68 3.78 2.3Z" />
			</g>
		</g>
	</g>
</svg>