<svg version="1.2" baseProfile="tiny-ps" xmlns="http://www.w3.org/2000/svg" viewBox="0 0 22 22" width="22" height="22">
	<title>Header</title>
	<style>
		tspan { white-space:pre }
		.shp0 { fill: #ff5672 } 
	</style>
	<g id="Header">
		<g id="Navigation">
			<path id="Search Icon" class="shp0" d="M21.18 20.36L16.13 15.31C17.43 13.74 18.21 11.72 18.21 9.52C18.21 4.48 14.13 0.41 9.1 0.41C4.07 0.41 -0.01 4.48 -0.01 9.52C-0.01 14.55 4.07 18.62 9.1 18.62C11.45 18.62 13.59 17.72 15.21 16.26L20.25 21.29L21.18 20.36ZM9.1 17.31C4.79 17.3 1.32 13.82 1.31 9.52C1.32 5.21 4.79 1.73 9.1 1.72C13.4 1.73 16.88 5.21 16.89 9.52C16.88 13.82 13.4 17.3 9.1 17.31Z" />
		</g>
	</g>
</svg>