<svg version="1.2" baseProfile="tiny-ps" xmlns="http://www.w3.org/2000/svg" viewBox="0 0 15 13" width="15" height="13">
	<title>Section</title>
	<style>
		tspan { white-space:pre }
		.shp0 { fill: #c2cfd7 } 
	</style>
	<g id="Section">
		<g id="Footer">
			<g id="Social Icons">
				<path id="Tweeter" class="shp0" d="M14.74 1.55C14.19 1.8 13.6 1.96 12.99 2.03C13.62 1.66 14.1 1.06 14.33 0.34C13.74 0.69 13.08 0.95 12.39 1.09C11.83 0.49 11.04 0.12 10.16 0.12C8.47 0.12 7.11 1.49 7.11 3.18C7.11 3.41 7.14 3.65 7.19 3.87C4.65 3.75 2.4 2.53 0.89 0.68C0.63 1.13 0.48 1.66 0.48 2.22C0.48 3.28 1.02 4.21 1.84 4.76C1.34 4.74 0.87 4.6 0.45 4.37C0.45 4.39 0.45 4.4 0.45 4.41C0.45 5.89 1.51 7.13 2.9 7.41C2.65 7.48 2.38 7.52 2.1 7.52C1.9 7.52 1.71 7.5 1.52 7.46C1.91 8.67 3.04 9.56 4.38 9.58C3.33 10.4 2.02 10.89 0.58 10.89C0.34 10.89 0.09 10.87 -0.14 10.85C1.21 11.71 2.81 12.22 4.54 12.22C10.15 12.22 13.23 7.56 13.23 3.53C13.23 3.4 13.22 3.27 13.22 3.13C13.81 2.7 14.33 2.17 14.74 1.55Z" />
			</g>
		</g>
	</g>
</svg>