<svg version="1.2" baseProfile="tiny-ps" xmlns="http://www.w3.org/2000/svg" viewBox="0 0 15 15" width="15" height="15">
	<title>Section</title>
	<style>
		tspan { white-space:pre }
		.shp0 { fill: #c2cfd7 } 
	</style>
	<g id="Section">
		<g id="Footer">
			<g id="Social Icons">
				<path id="Youtube" class="shp0" d="M12.2 7.16L2.8 7.16C1.3 7.16 0.09 8.37 0.09 9.86L0.09 12.04C0.09 13.53 1.3 14.75 2.8 14.75L12.2 14.75C13.7 14.75 14.91 13.53 14.91 12.04L14.91 9.86C14.91 8.37 13.7 7.16 12.2 7.16ZM4.77 8.85L3.9 8.85L3.9 13.2L3.06 13.2L3.06 8.85L2.18 8.85L2.18 8.11L4.77 8.11L4.77 8.85ZM7.24 13.2L6.5 13.2L6.5 12.79C6.36 12.94 6.21 13.05 6.06 13.13C5.91 13.21 5.77 13.25 5.63 13.25C5.45 13.25 5.32 13.2 5.24 13.08C5.15 12.97 5.1 12.81 5.1 12.58L5.1 9.44L5.85 9.44L5.85 12.32C5.85 12.41 5.87 12.48 5.9 12.51C5.93 12.55 5.98 12.58 6.05 12.58C6.11 12.58 6.18 12.55 6.26 12.5C6.35 12.44 6.43 12.38 6.5 12.29L6.5 9.44L7.24 9.44L7.24 13.2ZM9.96 12.42C9.96 12.69 9.91 12.89 9.79 13.03C9.67 13.17 9.5 13.24 9.28 13.24C9.13 13.24 9 13.22 8.89 13.16C8.77 13.11 8.66 13.02 8.57 12.91L8.57 13.2L7.81 13.2L7.81 8.11L8.57 8.11L8.57 9.75C8.67 9.64 8.77 9.55 8.89 9.49C9 9.43 9.12 9.4 9.23 9.4C9.47 9.4 9.65 9.48 9.78 9.64C9.9 9.8 9.96 10.03 9.96 10.34L9.96 12.42ZM12.56 11.41L11.13 11.41L11.13 12.12C11.13 12.32 11.15 12.45 11.2 12.53C11.25 12.6 11.34 12.64 11.46 12.64C11.58 12.64 11.67 12.61 11.72 12.54C11.77 12.48 11.79 12.34 11.79 12.12L11.79 11.95L12.56 11.95L12.56 12.14C12.56 12.52 12.47 12.81 12.28 13.01C12.1 13.2 11.81 13.3 11.44 13.3C11.1 13.3 10.84 13.2 10.65 12.99C10.46 12.79 10.36 12.5 10.36 12.14L10.36 10.45C10.36 10.13 10.46 9.86 10.68 9.66C10.89 9.45 11.16 9.35 11.49 9.35C11.84 9.35 12.1 9.45 12.29 9.64C12.47 9.83 12.56 10.1 12.56 10.45L12.56 11.41ZM11.46 10.01C11.35 10.01 11.26 10.04 11.21 10.11C11.16 10.18 11.13 10.29 11.13 10.45L11.13 10.83L11.79 10.83L11.79 10.45C11.79 10.29 11.77 10.18 11.71 10.11C11.66 10.04 11.58 10.01 11.46 10.01ZM8.88 10C8.83 10 8.77 10.01 8.72 10.03C8.67 10.05 8.62 10.1 8.57 10.15L8.57 12.48C8.63 12.54 8.69 12.59 8.74 12.62C8.8 12.64 8.86 12.66 8.93 12.66C9.02 12.66 9.08 12.63 9.13 12.58C9.17 12.52 9.19 12.44 9.19 12.32L9.19 10.38C9.19 10.25 9.17 10.16 9.11 10.09C9.06 10.03 8.98 10 8.88 10ZM4.03 5.85L4.98 5.85L4.98 3.53L6.09 0.25L5.12 0.25L4.53 2.49L4.47 2.49L3.86 0.25L2.9 0.25L4.03 3.64L4.03 5.85ZM7.37 5.96C7.76 5.96 8.06 5.86 8.28 5.66C8.5 5.45 8.6 5.18 8.6 4.83L8.6 2.69C8.6 2.38 8.49 2.12 8.27 1.92C8.05 1.72 7.76 1.62 7.41 1.62C7.03 1.62 6.72 1.71 6.5 1.9C6.27 2.09 6.16 2.35 6.16 2.67L6.16 4.81C6.16 5.16 6.27 5.44 6.49 5.65C6.71 5.85 7 5.96 7.37 5.96ZM7.02 2.64C7.02 2.55 7.06 2.47 7.12 2.42C7.18 2.36 7.27 2.33 7.37 2.33C7.48 2.33 7.57 2.36 7.64 2.42C7.71 2.47 7.74 2.55 7.74 2.64L7.74 4.89C7.74 5 7.71 5.08 7.64 5.15C7.58 5.21 7.49 5.24 7.37 5.24C7.26 5.24 7.17 5.21 7.11 5.15C7.05 5.09 7.02 5 7.02 4.89L7.02 2.64ZM9.88 5.91C10.04 5.91 10.2 5.87 10.37 5.78C10.54 5.69 10.7 5.57 10.85 5.4L10.85 5.85L11.7 5.85L11.7 1.72L10.85 1.72L10.85 4.86C10.77 4.95 10.69 5.02 10.59 5.08C10.5 5.14 10.42 5.17 10.36 5.17C10.28 5.17 10.22 5.15 10.19 5.1C10.15 5.06 10.13 4.99 10.13 4.89L10.13 1.72L9.29 1.72L9.29 5.17C9.29 5.42 9.34 5.61 9.44 5.73C9.54 5.85 9.68 5.91 9.88 5.91Z" />
			</g>
		</g>
	</g>
</svg>